<?xml version="1.0" encoding="UTF-8"?>
<svg id="Layer_1" data-name="Layer 1" xmlns="http://www.w3.org/2000/svg" viewBox="0 0 415.46 69.58">
  <defs>
    <style>
      .cls-1 {
        fill: #111212;
      }

      .cls-2 {
        fill: #003b6d;
      }

      .cls-3 {
        fill: #007fcd;
      }

      .cls-4 {
        fill: #e69200;
      }
    </style>
  </defs>
  <g>
    <path class="cls-1" d="M137.06,27.16c0-.43,0-1.01-.02-1.74-.01-.73-.04-1.57-.07-2.53-.01-.35-.03-.72-.05-1.09.24.44.47.87.69,1.27.47.87.91,1.65,1.31,2.34.4.69.75,1.27,1.06,1.76l6.36,10.12h4.83V15.41h-4.54v10.75c0,.49,0,1.14.03,1.95.02.81.05,1.65.08,2.53,0,.1,0,.19.01.29-.16-.31-.31-.62-.47-.93-.37-.7-.73-1.34-1.07-1.94s-.63-1.09-.87-1.48l-7.01-11.16h-4.82v21.89h4.54v-10.14Z"/>
    <path class="cls-1" d="M168.36,37.3v-10.64c0-.87-.16-1.64-.47-2.31-.31-.67-.77-1.23-1.36-1.68-.59-.45-1.31-.8-2.14-1.04-.83-.24-1.76-.35-2.78-.35-1.37,0-2.56.2-3.57.62-1.01.41-1.81.99-2.39,1.75-.59.75-.94,1.65-1.06,2.7l4.07.15c.06-.39.21-.74.45-1.04.24-.3.57-.53.98-.7s.89-.25,1.42-.25,1,.08,1.37.25c.38.17.67.4.87.69s.3.65.3,1.06v.09c0,.33-.12.59-.37.76s-.66.3-1.22.39c-.56.09-1.32.18-2.27.26-.8.08-1.57.21-2.31.4-.73.19-1.39.47-1.95.82-.57.36-1.01.83-1.34,1.42s-.48,1.33-.48,2.22c0,1.04.23,1.91.7,2.61.47.7,1.1,1.23,1.91,1.57.81.35,1.73.52,2.75.52.8,0,1.5-.1,2.08-.31s1.08-.49,1.49-.87c.41-.37.75-.81,1.03-1.31h.07v2.2h4.22ZM164.08,31.59c0,.56-.14,1.06-.41,1.51s-.67.8-1.18,1.06c-.51.26-1.12.39-1.81.39-.48,0-.9-.07-1.26-.21s-.64-.35-.84-.62c-.2-.27-.3-.59-.3-.96,0-.42.12-.77.35-1.05.23-.28.56-.5.96-.66.41-.16.86-.28,1.36-.36.32-.05.65-.1.97-.15s.63-.11.91-.17c.28-.06.53-.12.75-.18s.39-.13.51-.2v1.6Z"/>
    <path class="cls-1" d="M180.55,33.89c-.18.01-.43.02-.76.02-.33,0-.61,0-.84,0-.58,0-.97-.11-1.19-.32s-.32-.58-.32-1.09v-7.54h3.16v-3.39h-3.16v-4.16h-4.35v4.16h-2.58v3.39h2.58v8.14c0,1.43.41,2.49,1.23,3.19.82.7,2.08,1.04,3.78,1.04.47,0,.94,0,1.42-.01s.86-.03,1.17-.06l-.13-3.38Z"/>
    <rect class="cls-1" x="183.21" y="21.58" width="4.33" height="15.72"/>
    <path class="cls-1" d="M185.36,19.6c.71,0,1.29-.22,1.76-.66s.71-.99.71-1.65-.24-1.2-.71-1.64-1.06-.65-1.76-.65-1.29.22-1.76.65c-.46.44-.7.98-.7,1.64s.23,1.21.7,1.65c.47.44,1.05.66,1.76.66Z"/>
    <path class="cls-1" d="M194.11,36.62c1.18.69,2.57,1.03,4.16,1.03s2.97-.34,4.16-1.03c1.18-.69,2.11-1.64,2.77-2.86s.99-2.65.99-4.29-.33-3.08-.99-4.31c-.66-1.23-1.58-2.19-2.77-2.87-1.19-.69-2.57-1.03-4.16-1.03s-2.97.34-4.16,1.03c-1.19.69-2.11,1.64-2.77,2.87-.66,1.23-.99,2.67-.99,4.31s.33,3.07.99,4.29,1.58,2.18,2.77,2.86ZM195.18,26.97c.29-.7.7-1.24,1.23-1.62.53-.38,1.15-.57,1.87-.57s1.35.19,1.87.57c.52.38.93.92,1.22,1.62.29.7.43,1.54.43,2.5s-.15,1.78-.43,2.48-.7,1.24-1.22,1.62c-.52.38-1.15.57-1.87.57s-1.34-.19-1.87-.57c-.53-.38-.94-.92-1.23-1.62s-.43-1.52-.43-2.48.15-1.8.43-2.5Z"/>
    <path class="cls-1" d="M223.63,37.3v-9.87c0-1.3-.22-2.41-.68-3.33-.45-.92-1.09-1.61-1.91-2.09-.82-.48-1.79-.72-2.91-.72-1.4,0-2.55.38-3.45,1.15-.57.48-1.04,1.1-1.44,1.82v-2.67h-4.24v15.72h4.33v-8.81c0-.79.13-1.44.4-1.95.26-.51.63-.89,1.09-1.15.46-.26,1-.38,1.6-.38.91,0,1.62.28,2.12.83.5.55.76,1.34.76,2.37v9.09h4.33Z"/>
    <path class="cls-1" d="M238.89,22.68c-.59-.45-1.31-.8-2.14-1.04-.83-.24-1.76-.35-2.78-.35-1.37,0-2.56.2-3.57.62-1.01.41-1.81.99-2.39,1.75-.59.75-.94,1.65-1.06,2.7l4.07.15c.06-.39.21-.74.45-1.04.24-.3.57-.53.98-.7s.89-.25,1.42-.25,1,.08,1.37.25c.38.17.67.4.87.69s.3.65.3,1.06v.09c0,.33-.12.59-.37.76s-.66.3-1.22.39c-.56.09-1.32.18-2.27.26-.8.08-1.57.21-2.31.4-.73.19-1.39.47-1.95.82-.57.36-1.01.83-1.34,1.42s-.48,1.33-.48,2.22c0,1.04.23,1.91.7,2.61.47.7,1.1,1.23,1.91,1.57.81.35,1.73.52,2.75.52.8,0,1.5-.1,2.08-.31s1.08-.49,1.49-.87c.41-.37.75-.81,1.03-1.31h.07v2.2h4.22v-10.64c0-.87-.16-1.64-.47-2.31-.31-.67-.77-1.23-1.36-1.68ZM236.45,31.59c0,.56-.14,1.06-.41,1.51s-.67.8-1.18,1.06c-.51.26-1.12.39-1.81.39-.48,0-.9-.07-1.26-.21s-.64-.35-.84-.62c-.2-.27-.3-.59-.3-.96,0-.42.12-.77.35-1.05.23-.28.56-.5.96-.66.41-.16.86-.28,1.36-.36.32-.05.65-.1.97-.15s.63-.11.91-.17c.28-.06.53-.12.75-.18s.39-.13.51-.2v1.6Z"/>
    <rect class="cls-1" x="244.22" y="15.41" width="4.33" height="21.89"/>
    <polygon class="cls-1" points="273.37 33.47 263.53 33.47 263.53 15.41 259.02 15.41 259.02 37.3 273.37 37.3 273.37 33.47"/>
    <path class="cls-1" d="M280.7,37.58c.8,0,1.5-.1,2.08-.31s1.08-.49,1.49-.87c.41-.37.75-.81,1.03-1.31h.07v2.2h4.22v-10.64c0-.87-.16-1.64-.47-2.31-.31-.67-.77-1.23-1.36-1.68-.59-.45-1.31-.8-2.14-1.04-.83-.24-1.76-.35-2.78-.35-1.37,0-2.56.2-3.57.62-1.01.41-1.81.99-2.39,1.75-.59.75-.94,1.65-1.06,2.7l4.07.15c.06-.39.21-.74.45-1.04.24-.3.57-.53.98-.7s.89-.25,1.42-.25,1,.08,1.37.25c.38.17.67.4.87.69s.3.65.3,1.06v.09c0,.33-.12.59-.37.76s-.66.3-1.22.39c-.56.09-1.32.18-2.27.26-.8.08-1.57.21-2.31.4-.73.19-1.39.47-1.95.82-.57.36-1.01.83-1.34,1.42s-.48,1.33-.48,2.22c0,1.04.23,1.91.7,2.61.47.7,1.1,1.23,1.91,1.57.81.35,1.73.52,2.75.52ZM279.85,31.71c.23-.28.56-.5.96-.66.41-.16.86-.28,1.36-.36.32-.05.65-.1.97-.15s.63-.11.91-.17c.28-.06.53-.12.75-.18s.39-.13.51-.2v1.6c0,.56-.14,1.06-.41,1.51s-.67.8-1.18,1.06c-.51.26-1.12.39-1.81.39-.48,0-.9-.07-1.26-.21s-.64-.35-.84-.62c-.2-.27-.3-.59-.3-.96,0-.42.12-.77.35-1.05Z"/>
    <path class="cls-1" d="M305.56,36.61c1-.67,1.79-1.61,2.35-2.83s.84-2.67.84-4.33-.29-3.09-.86-4.31c-.57-1.22-1.36-2.16-2.37-2.83s-2.16-1.01-3.46-1.01c-.73,0-1.38.11-1.96.32-.58.21-1.09.51-1.53.89s-.81.84-1.11,1.38h-.04v-8.46h-4.33v21.89h4.27v-2.44h.06c.28.57.65,1.06,1.09,1.47.44.41.96.73,1.55.95.59.22,1.25.33,1.98.33,1.34,0,2.51-.33,3.52-1ZM298.96,33.51c-.55-.38-.97-.92-1.26-1.62s-.44-1.52-.44-2.46.15-1.75.44-2.45.71-1.23,1.26-1.61c.54-.38,1.18-.57,1.92-.57s1.34.19,1.86.56c.51.37.91.9,1.2,1.6.28.69.43,1.52.43,2.47s-.14,1.8-.43,2.5c-.28.7-.68,1.23-1.2,1.6s-1.13.56-1.86.56-1.36-.19-1.91-.57Z"/>
    <path class="cls-1" d="M314.64,36.62c1.18.69,2.57,1.03,4.16,1.03s2.97-.34,4.16-1.03c1.18-.69,2.11-1.64,2.77-2.86s.99-2.65.99-4.29-.33-3.08-.99-4.31c-.66-1.23-1.58-2.19-2.77-2.87-1.19-.69-2.57-1.03-4.16-1.03s-2.97.34-4.16,1.03c-1.19.69-2.11,1.64-2.77,2.87-.66,1.23-.99,2.67-.99,4.31s.33,3.07.99,4.29,1.58,2.18,2.77,2.86ZM315.7,26.97c.29-.7.7-1.24,1.23-1.62.53-.38,1.15-.57,1.87-.57s1.35.19,1.87.57c.52.38.93.92,1.22,1.62.29.7.43,1.54.43,2.5s-.15,1.78-.43,2.48-.7,1.24-1.22,1.62c-.52.38-1.15.57-1.87.57s-1.34-.19-1.87-.57c-.53-.38-.94-.92-1.23-1.62s-.43-1.52-.43-2.48.15-1.8.43-2.5Z"/>
    <path class="cls-1" d="M337.6,21.45c-1,0-1.81.23-2.45.7-.63.46-1.09,1.18-1.37,2.14h-.07v-2.7h-4.19v15.72h4.33v-8.61c0-.76.14-1.41.41-1.93s.65-.92,1.14-1.2c.49-.27,1.03-.41,1.64-.41.36,0,.72.01,1.08.04.36.02.62.05.79.07v-3.73c-.18-.02-.38-.04-.59-.05-.22-.01-.46-.02-.71-.02Z"/>
    <path class="cls-1" d="M352.73,22.68c-.59-.45-1.31-.8-2.14-1.04-.83-.24-1.76-.35-2.78-.35-1.37,0-2.56.2-3.57.62-1.01.41-1.81.99-2.39,1.75-.59.75-.94,1.65-1.06,2.7l4.07.15c.06-.39.21-.74.45-1.04.24-.3.57-.53.98-.7s.89-.25,1.42-.25,1,.08,1.37.25c.38.17.67.4.87.69s.3.65.3,1.06v.09c0,.33-.12.59-.37.76s-.66.3-1.22.39c-.56.09-1.32.18-2.27.26-.8.08-1.57.21-2.31.4-.73.19-1.39.47-1.95.82-.57.36-1.01.83-1.34,1.42s-.48,1.33-.48,2.22c0,1.04.23,1.91.7,2.61.47.7,1.1,1.23,1.91,1.57.81.35,1.73.52,2.75.52.8,0,1.5-.1,2.08-.31s1.08-.49,1.49-.87c.41-.37.75-.81,1.03-1.31h.07v2.2h4.22v-10.64c0-.87-.16-1.64-.47-2.31-.31-.67-.77-1.23-1.36-1.68ZM350.29,31.59c0,.56-.14,1.06-.41,1.51s-.67.8-1.18,1.06c-.51.26-1.12.39-1.81.39-.48,0-.9-.07-1.26-.21s-.64-.35-.84-.62c-.2-.27-.3-.59-.3-.96,0-.42.12-.77.35-1.05.23-.28.56-.5.96-.66.41-.16.86-.28,1.36-.36.32-.05.65-.1.97-.15s.63-.11.91-.17c.28-.06.53-.12.75-.18s.39-.13.51-.2v1.6Z"/>
    <path class="cls-1" d="M366,33.92c-.33,0-.61,0-.84,0-.58,0-.97-.11-1.19-.32s-.32-.58-.32-1.09v-7.54h3.16v-3.39h-3.16v-4.16h-4.35v4.16h-2.58v3.39h2.58v8.14c0,1.43.41,2.49,1.23,3.19.82.7,2.08,1.04,3.78,1.04.47,0,.94,0,1.42-.01s.86-.03,1.17-.06l-.13-3.38c-.18.01-.43.02-.76.02Z"/>
    <path class="cls-1" d="M380.56,22.29c-1.19-.69-2.57-1.03-4.16-1.03s-2.97.34-4.16,1.03c-1.19.69-2.11,1.64-2.77,2.87-.66,1.23-.99,2.67-.99,4.31s.33,3.07.99,4.29,1.58,2.18,2.77,2.86c1.18.69,2.57,1.03,4.16,1.03s2.97-.34,4.16-1.03c1.18-.69,2.11-1.64,2.77-2.86s.99-2.65.99-4.29-.33-3.08-.99-4.31c-.66-1.23-1.58-2.19-2.77-2.87ZM379.5,31.95c-.29.7-.7,1.24-1.22,1.62-.52.38-1.15.57-1.87.57s-1.34-.19-1.87-.57c-.53-.38-.94-.92-1.23-1.62s-.43-1.52-.43-2.48.15-1.8.43-2.5c.29-.7.7-1.24,1.23-1.62.53-.38,1.15-.57,1.87-.57s1.35.19,1.87.57c.52.38.93.92,1.22,1.62.29.7.43,1.54.43,2.5s-.15,1.78-.43,2.48Z"/>
    <path class="cls-1" d="M395.22,21.45c-1,0-1.81.23-2.45.7-.63.46-1.09,1.18-1.37,2.14h-.07v-2.7h-4.19v15.72h4.33v-8.61c0-.76.14-1.41.41-1.93s.65-.92,1.14-1.2c.49-.27,1.03-.41,1.64-.41.36,0,.72.01,1.08.04.36.02.62.05.79.07v-3.73c-.18-.02-.38-.04-.59-.05-.22-.01-.46-.02-.71-.02Z"/>
    <path class="cls-1" d="M409.9,21.58l-2.66,7.86c-.31.94-.61,1.89-.87,2.84-.07.24-.13.49-.2.73-.07-.24-.13-.49-.2-.73-.26-.96-.54-1.9-.84-2.84l-2.64-7.86h-4.57l6.02,15.69-.37,1.07c-.12.43-.27.77-.45,1.03-.18.25-.41.43-.68.53-.27.1-.6.13-1.01.1l-1.66-.04-.22,3.41c.43.03.89.05,1.39.07.49.02.99.03,1.48.03.87,0,1.63-.14,2.28-.43.65-.28,1.21-.72,1.67-1.29.47-.58.87-1.3,1.19-2.16l6.86-18.01h-4.52Z"/>
    <path class="cls-1" d="M143.82,53.47c-1.19-.69-2.57-1.03-4.16-1.03s-2.97.34-4.16,1.03c-1.19.69-2.11,1.64-2.77,2.87-.66,1.23-.99,2.67-.99,4.31s.33,3.07.99,4.29,1.58,2.18,2.77,2.86c1.18.69,2.57,1.03,4.16,1.03s2.97-.34,4.16-1.03c1.18-.69,2.11-1.64,2.77-2.86s.99-2.65.99-4.29-.33-3.08-.99-4.31c-.66-1.23-1.58-2.19-2.77-2.87ZM142.75,63.13c-.29.7-.7,1.24-1.22,1.62-.52.38-1.15.57-1.87.57s-1.34-.19-1.87-.57c-.53-.38-.94-.92-1.23-1.62s-.43-1.52-.43-2.48.15-1.8.43-2.5c.29-.7.7-1.24,1.23-1.62.53-.38,1.15-.57,1.87-.57s1.35.19,1.87.57c.52.38.93.92,1.22,1.62.29.7.43,1.54.43,2.5s-.15,1.78-.43,2.48Z"/>
    <path class="cls-1" d="M156.6,50.21c.26-.27.71-.41,1.34-.41.24,0,.51,0,.81.01s.52.03.66.04l.18-3.39c-.2-.02-.55-.04-1.04-.07-.49-.03-1.01-.04-1.57-.04-1.09,0-2.01.17-2.78.51-.76.34-1.34.85-1.73,1.52-.39.67-.59,1.51-.59,2.52v1.85h-2.83v3.39h2.83v12.33h4.33v-12.33h3.23v-3.39h-3.23v-1.25c0-.6.13-1.03.4-1.31Z"/>
    <path class="cls-1" d="M176.8,65.1c-.33,0-.61,0-.84,0-.58,0-.97-.11-1.19-.32s-.32-.58-.32-1.09v-7.54h3.16v-3.39h-3.16v-4.16h-4.35v4.16h-2.58v3.39h2.58v8.14c0,1.43.41,2.49,1.23,3.19.82.7,2.08,1.04,3.78,1.04.47,0,.94,0,1.42-.01s.86-.03,1.17-.06l-.13-3.38c-.18.01-.43.02-.76.02Z"/>
    <path class="cls-1" d="M192.27,53.19c-.82-.48-1.79-.72-2.91-.72-1.4,0-2.55.38-3.45,1.15-.53.45-.98,1.02-1.37,1.68v-8.71h-4.32v21.89h4.33v-8.81c0-.79.13-1.44.4-1.95.26-.51.63-.89,1.09-1.15.46-.26,1-.38,1.6-.38.91,0,1.62.28,2.12.83.5.55.76,1.34.76,2.37v9.09h4.33v-9.87c0-1.3-.22-2.41-.68-3.33-.45-.92-1.09-1.61-1.91-2.09Z"/>
    <path class="cls-1" d="M210.86,54.66c-.68-.71-1.49-1.26-2.42-1.64-.93-.38-1.96-.57-3.09-.57-1.52,0-2.85.35-4,1.05-1.15.7-2.05,1.67-2.7,2.9-.65,1.23-.98,2.65-.98,4.26s.32,3.02.96,4.25,1.55,2.19,2.72,2.89c1.18.7,2.56,1.04,4.16,1.04,1.25,0,2.39-.22,3.42-.65s1.88-1.03,2.56-1.79c.68-.76,1.12-1.64,1.32-2.64l-3.95-.18c-.14.4-.36.75-.65,1.05s-.67.53-1.1.68c-.44.16-.93.24-1.48.24-.77,0-1.44-.16-2-.49-.56-.33-.98-.8-1.28-1.4-.27-.55-.39-1.2-.42-1.94h11.06v-1.17c0-1.23-.19-2.35-.56-3.34s-.9-1.85-1.58-2.56ZM203.56,56.23c.52-.32,1.15-.48,1.87-.48s1.36.16,1.88.48c.52.32.92.77,1.2,1.34.19.4.3.88.36,1.4h-6.88c.06-.51.16-.99.36-1.4.28-.57.69-1.02,1.21-1.34Z"/>
    <path class="cls-1" d="M253.22,53.47c-1.19-.69-2.57-1.03-4.16-1.03s-2.97.34-4.16,1.03c-1.19.69-2.11,1.64-2.77,2.87-.66,1.23-.99,2.67-.99,4.31s.33,3.07.99,4.29,1.58,2.18,2.77,2.86c1.18.69,2.57,1.03,4.16,1.03s2.97-.34,4.16-1.03c1.18-.69,2.11-1.64,2.77-2.86s.99-2.65.99-4.29-.33-3.08-.99-4.31c-.66-1.23-1.58-2.19-2.77-2.87ZM252.16,63.13c-.29.7-.7,1.24-1.22,1.62-.52.38-1.15.57-1.87.57s-1.34-.19-1.87-.57c-.53-.38-.94-.92-1.23-1.62s-.43-1.52-.43-2.48.15-1.8.43-2.5c.29-.7.7-1.24,1.23-1.62.53-.38,1.15-.57,1.87-.57s1.35.19,1.87.57c.52.38.93.92,1.22,1.62.29.7.43,1.54.43,2.5s-.15,1.78-.43,2.48Z"/>
    <path class="cls-1" d="M269.7,63.74c-.17.33-.38.62-.63.86-.25.24-.55.42-.9.55-.34.13-.73.19-1.16.19-.74,0-1.38-.19-1.9-.58s-.92-.93-1.2-1.64c-.28-.71-.42-1.53-.42-2.47s.14-1.79.42-2.5.68-1.25,1.2-1.64,1.15-.58,1.9-.58c.43,0,.82.06,1.17.19.35.13.65.31.91.54s.47.52.64.84.28.69.34,1.09l4.17-.16c-.09-.89-.32-1.7-.71-2.44s-.9-1.37-1.54-1.9c-.64-.53-1.39-.94-2.24-1.23-.85-.29-1.78-.44-2.79-.44-1.58,0-2.95.34-4.13,1.04-1.17.69-2.09,1.65-2.74,2.89-.65,1.23-.98,2.66-.98,4.29s.32,3.04.98,4.27c.65,1.23,1.56,2.19,2.74,2.88,1.18.69,2.55,1.04,4.13,1.04,1.02,0,1.96-.15,2.81-.45.86-.3,1.61-.72,2.25-1.26s1.16-1.17,1.54-1.91c.38-.74.61-1.55.69-2.44l-4.19-.18c-.08.42-.2.8-.37,1.13Z"/>
    <polygon class="cls-1" points="291.91 52.77 286.84 52.77 281.41 58.79 281.32 58.79 281.32 46.6 276.99 46.6 276.99 68.49 281.32 68.49 281.32 63.48 282.58 62.1 287.15 68.49 292.24 68.49 285.84 59.58 291.91 52.77"/>
    <path class="cls-1" d="M296.18,46.19c-.71,0-1.29.22-1.76.65-.46.44-.7.98-.7,1.64s.23,1.21.7,1.65c.47.44,1.05.66,1.76.66s1.29-.22,1.76-.66.71-.99.71-1.65-.24-1.2-.71-1.64-1.06-.65-1.76-.65Z"/>
    <rect class="cls-1" x="294.02" y="52.77" width="4.33" height="15.72"/>
    <path class="cls-1" d="M314.35,54.66c-.68-.71-1.49-1.26-2.42-1.64-.93-.38-1.96-.57-3.09-.57-1.52,0-2.85.35-4,1.05-1.15.7-2.05,1.67-2.7,2.9-.65,1.23-.98,2.65-.98,4.26s.32,3.02.96,4.25,1.55,2.19,2.72,2.89c1.18.7,2.56,1.04,4.16,1.04,1.25,0,2.39-.22,3.42-.65s1.88-1.03,2.56-1.79c.68-.76,1.12-1.64,1.32-2.64l-3.95-.18c-.14.4-.36.75-.65,1.05s-.67.53-1.1.68c-.44.16-.93.24-1.48.24-.77,0-1.44-.16-2-.49-.56-.33-.98-.8-1.28-1.4-.27-.55-.39-1.2-.42-1.94h11.06v-1.17c0-1.23-.19-2.35-.56-3.34s-.9-1.85-1.58-2.56ZM307.05,56.23c.52-.32,1.15-.48,1.87-.48s1.36.16,1.88.48c.52.32.92.77,1.2,1.34.19.4.3.88.36,1.4h-6.88c.06-.51.16-.99.36-1.4.28-.57.69-1.02,1.21-1.34Z"/>
    <path class="cls-1" d="M328.08,59.38l-2.95-.57c-.63-.14-1.11-.34-1.44-.59-.33-.26-.5-.59-.5-1.01,0-.47.22-.86.66-1.17.44-.31,1.03-.46,1.78-.46s1.4.2,1.88.59c.48.4.74.9.79,1.51l3.98-.15c-.07-1.04-.39-1.93-.95-2.69-.57-.75-1.35-1.34-2.34-1.75-.99-.41-2.15-.62-3.48-.62s-2.52.2-3.52.61c-.99.41-1.76.98-2.31,1.72-.54.74-.81,1.61-.81,2.61,0,1.19.39,2.17,1.17,2.94.78.76,1.93,1.3,3.45,1.6l2.75.54c.66.13,1.16.32,1.51.58.35.26.52.59.52,1.01,0,.48-.23.87-.7,1.18-.46.31-1.1.46-1.92.46s-1.53-.19-2.03-.57c-.5-.38-.8-.92-.91-1.62l-4.22.16c.11,1.09.48,2.02,1.11,2.78s1.47,1.36,2.51,1.76c1.04.41,2.23.61,3.56.61s2.58-.22,3.64-.65c1.05-.43,1.88-1.03,2.47-1.81.59-.77.89-1.68.89-2.73,0-1.15-.38-2.07-1.12-2.77-.75-.7-1.91-1.21-3.47-1.52Z"/>
    <path class="cls-1" d="M238.29,57.7c.67-1.05,1.01-2.31,1.01-3.74s-.32-2.73-.96-3.8c-.64-1.07-1.56-1.9-2.75-2.48-1.18-.58-2.6-.87-4.23-.87h-8.66v21.67h4.71v-17.71h3.56c.78,0,1.45.13,1.99.39.54.26.96.62,1.24,1.09.28.47.43,1.04.43,1.71s-.14,1.21-.43,1.68c-.28.47-.7.84-1.23,1.09-.54.26-1.21.39-1.99.39h-2l5.79,11.28.04.08h5.12l-4.4-8.39c1.17-.56,2.1-1.37,2.75-2.39Z"/>
  </g>
  <g>
    <path class="cls-2" d="M41.56,64.34c.09-.17.19-.31.25-.42.07-.11.16-.25.29-.41l10.9-16.41c1.03-1.35,2.51-2.34,4.16-2.78l6.41-1.7,9.16-10.16c1.45-1.96,3.77-3.13,6.2-3.13h1.07L59.76,1.17c-.4-.57-1.25-.58-1.66-.02l-4.73,11.06c-.05.12-.12.23-.22.31-.1.09-.23.16-.36.2l-4.96,1.57c-.45.14-.84.45-1.08.86l-4.85,8.25c-.57.98-1.87,1.25-2.79.59l-5.31-3.82c-.46-.33-1.11-.22-1.44.25L1.22,66.89c-.47.68.02,1.6.84,1.6h38.69c-.18-1.42.09-2.87.8-4.15ZM45.71,28.02l4.82-8.09c.25-.43.65-.75,1.13-.9l2.85-.9c.87-.27,1.66-.71,2.36-1.31.75-.65,1.33-1.45,1.73-2.38l.73-1.7.1-.13c.25-.61,1.07-.7,1.45-.16l7.37,10.26c.32.45.12,1.08-.4,1.27l-1.86.05c-.57.01-1.12.11-1.66.29l-13.32,4.6c-.8.29-1.66.43-2.51.4l-2.03-.04c-.65.01-1.07-.7-.74-1.26ZM35.91,38.61c-.17.02-.33.09-.46.21l-15.41,13.45c-.76.66-1.85-.29-1.29-1.13l15.11-22.79c.26-.39.78-.5,1.17-.26l7.01,4.4c.11.07.24.1.38.09l1.7-.15c.78-.05,1.23.88.69,1.46l-3.61,3.87c-.14.15-.33.24-.53.27l-4.76.59Z"/>
    <circle class="cls-4" cx="94.94" cy="12.1" r="7.3"/>
    <path class="cls-3" d="M114.74,67.09l-12.02-31.53c-.11-.22-.29-.37-.5-.43-.07-.02-.14-.03-.22-.03h-23.07c-.61,0-1.18.29-1.55.78l-9.97,11.26c-.26.35-.63.6-1.06.72l-7.72,2.04c-.41.11-.78.35-1.04.69l-9.15,13.78c-.71,1.28-.98,2.73-.79,4.15h43.64c9.59,0,18.93,0,22.47-.01.72,0,1.22-.72.97-1.4Z"/>
  </g>
</svg>